<svg xmlns="http://www.w3.org/2000/svg" fill="none" viewBox="513.33 0 126.67 144.98">
    <path
        d="M583.226 1.82685C581.199 0.624666 578.901 0 576.555 0C574.21 0 571.911 0.624666 569.884 1.82685L519.97 31.304C517.966 32.4944 516.293 34.2152 515.126 36.266C513.959 38.3286 513.346 40.6504 513.334 43.0312V68.5483L604.665 14.4734L583.214 1.82685H583.226Z"
        fill="#5B67F9"></path>
    <path
        d="M639.988 43.0309C639.988 40.6501 639.364 38.3165 638.197 36.2657C637.03 34.2031 635.368 32.4941 633.353 31.3037L625.904 27.0371L513.346 93.4521V101.985C513.346 104.378 513.959 106.723 515.114 108.798C516.281 110.872 517.954 112.593 519.97 113.795L528.244 118.521L639.976 52.6366V43.0427L639.988 43.0309Z"
        fill="#5B67F9"></path>
    <path
        d="M583.226 143.273L633.14 113.795C635.203 112.629 636.924 110.908 638.126 108.833C639.328 106.759 639.976 104.39 640 101.986V77.7651L549.635 131.086L570.12 143.273C572.135 144.392 574.386 144.982 576.673 144.982C578.959 144.982 581.222 144.392 583.226 143.273Z"
        fill="#5B67F9"></path>
</svg> 